<svg width="25" height="24" viewBox="0 0 25 24" fill="none" xmlns="http://www.w3.org/2000/svg">
<path d="M9.45192 3L7.60433 5H4.40384C3.29327 5 2.38461 5.9 2.38461 7V19C2.38461 20.1 3.29327 21 4.40384 21H20.5577C21.6683 21 22.5769 20.1 22.5769 19V7C22.5769 5.9 21.6683 5 20.5577 5H17.3572L15.5096 3H9.45192ZM12.4808 18C9.69423 18 7.43269 15.76 7.43269 13C7.43269 10.24 9.69423 8 12.4808 8C15.2673 8 17.5288 10.24 17.5288 13C17.5288 15.76 15.2673 18 12.4808 18Z" fill="#949494"/>
<path d="M12.4808 17L13.7428 14.25L16.5192 13L13.7428 11.75L12.4808 9L11.2187 11.75L8.44231 13L11.2187 14.25L12.4808 17Z" fill="#949494"/>
</svg>
