<svg width="120" height="32" viewBox="0 0 120 32" fill="none" xmlns="http://www.w3.org/2000/svg">
<rect x="36.1463" width="83.4146" height="31.05" rx="2" fill="#190061"/>
<path d="M3.49646 4.9375L9.07458 18.8594L14.6527 4.9375H17.5707V22H15.3207V15.3555L15.5316 8.18359L9.93005 22H8.2074L2.61755 8.21875L2.84021 15.3555V22H0.59021V4.9375H3.49646ZM28.1119 18.8242L31.0651 9.32031H33.3854L28.2877 23.957C27.4986 26.0664 26.2447 27.1211 24.526 27.1211L24.1158 27.0859L23.3072 26.9336V25.1758L23.8932 25.2227C24.6276 25.2227 25.1979 25.0742 25.6041 24.7773C26.0182 24.4805 26.358 23.9375 26.6236 23.1484L27.1041 21.8594L22.5807 9.32031H24.9479L28.1119 18.8242Z" fill="black"/>
<path d="M38.4305 22V4.9375H44.0086C45.8602 4.9375 47.2508 5.32031 48.1805 6.08594C49.118 6.85156 49.5868 7.98438 49.5868 9.48438C49.5868 10.2812 49.3602 10.9883 48.9071 11.6055C48.454 12.2148 47.8368 12.6875 47.0555 13.0234C47.9774 13.2812 48.704 13.7734 49.2352 14.5C49.7743 15.2188 50.0438 16.0781 50.0438 17.0781C50.0438 18.6094 49.5477 19.8125 48.5555 20.6875C47.5633 21.5625 46.161 22 44.3485 22H38.4305ZM40.6805 14.0195V20.1602H44.3954C45.4422 20.1602 46.2665 19.8906 46.868 19.3516C47.4774 18.8047 47.7821 18.0547 47.7821 17.1016C47.7821 15.0469 46.6649 14.0195 44.4305 14.0195H40.6805ZM40.6805 12.2148H44.079C45.0633 12.2148 45.8485 11.9688 46.4344 11.4766C47.0282 10.9844 47.3251 10.3164 47.3251 9.47266C47.3251 8.53516 47.0516 7.85547 46.5047 7.43359C45.9579 7.00391 45.1258 6.78906 44.0086 6.78906H40.6805V12.2148ZM55.2296 15.543C55.2296 14.3008 55.4718 13.1836 55.9561 12.1914C56.4483 11.1992 57.128 10.4336 57.9952 9.89453C58.8702 9.35547 59.8663 9.08594 60.9835 9.08594C62.7101 9.08594 64.1046 9.68359 65.1671 10.8789C66.2374 12.0742 66.7726 13.6641 66.7726 15.6484V15.8008C66.7726 17.0352 66.5343 18.1445 66.0577 19.1289C65.589 20.1055 64.9132 20.8672 64.0304 21.4141C63.1554 21.9609 62.1476 22.2344 61.0069 22.2344C59.2882 22.2344 57.8936 21.6367 56.8233 20.4414C55.7608 19.2461 55.2296 17.6641 55.2296 15.6953V15.543ZM57.4093 15.8008C57.4093 17.207 57.7335 18.3359 58.3819 19.1875C59.0382 20.0391 59.9132 20.4648 61.0069 20.4648C62.1085 20.4648 62.9835 20.0352 63.6319 19.1758C64.2804 18.3086 64.6046 17.0977 64.6046 15.543C64.6046 14.1523 64.2726 13.0273 63.6085 12.168C62.9522 11.3008 62.0772 10.8672 60.9835 10.8672C59.9132 10.8672 59.0499 11.293 58.3936 12.1445C57.7374 12.9961 57.4093 14.2148 57.4093 15.8008ZM71.6771 15.543C71.6771 14.3008 71.9193 13.1836 72.4036 12.1914C72.8958 11.1992 73.5755 10.4336 74.4427 9.89453C75.3177 9.35547 76.3138 9.08594 77.431 9.08594C79.1576 9.08594 80.5521 9.68359 81.6146 10.8789C82.6849 12.0742 83.2201 13.6641 83.2201 15.6484V15.8008C83.2201 17.0352 82.9818 18.1445 82.5052 19.1289C82.0365 20.1055 81.3607 20.8672 80.4779 21.4141C79.6029 21.9609 78.5951 22.2344 77.4544 22.2344C75.7357 22.2344 74.3411 21.6367 73.2708 20.4414C72.2083 19.2461 71.6771 17.6641 71.6771 15.6953V15.543ZM73.8568 15.8008C73.8568 17.207 74.181 18.3359 74.8294 19.1875C75.4857 20.0391 76.3607 20.4648 77.4544 20.4648C78.556 20.4648 79.431 20.0352 80.0794 19.1758C80.7279 18.3086 81.0521 17.0977 81.0521 15.543C81.0521 14.1523 80.7201 13.0273 80.056 12.168C79.3997 11.3008 78.5247 10.8672 77.431 10.8672C76.3607 10.8672 75.4974 11.293 74.8411 12.1445C74.1849 12.9961 73.8568 14.2148 73.8568 15.8008ZM92.2379 16.1289L90.8785 17.5469V22H88.7105V4H90.8785V14.8867L92.0387 13.4922L95.9879 9.32031H98.6246L93.691 14.6172L99.1988 22H96.6558L92.2379 16.1289ZM111.006 18.6367C111.006 18.0508 110.783 17.5977 110.338 17.2773C109.9 16.9492 109.131 16.668 108.029 16.4336C106.935 16.1992 106.064 15.918 105.416 15.5898C104.775 15.2617 104.299 14.8711 103.986 14.418C103.681 13.9648 103.529 13.4258 103.529 12.8008C103.529 11.7617 103.967 10.8828 104.842 10.1641C105.724 9.44531 106.849 9.08594 108.217 9.08594C109.654 9.08594 110.818 9.45703 111.709 10.1992C112.607 10.9414 113.056 11.8906 113.056 13.0469H110.877C110.877 12.4531 110.623 11.9414 110.115 11.5117C109.615 11.082 108.982 10.8672 108.217 10.8672C107.428 10.8672 106.81 11.0391 106.365 11.3828C105.92 11.7266 105.697 12.1758 105.697 12.7305C105.697 13.2539 105.904 13.6484 106.318 13.9141C106.732 14.1797 107.478 14.4336 108.556 14.6758C109.642 14.918 110.521 15.207 111.193 15.543C111.865 15.8789 112.361 16.2852 112.681 16.7617C113.01 17.2305 113.174 17.8047 113.174 18.4844C113.174 19.6172 112.721 20.5273 111.814 21.2148C110.908 21.8945 109.732 22.2344 108.287 22.2344C107.271 22.2344 106.373 22.0547 105.592 21.6953C104.81 21.3359 104.197 20.8359 103.752 20.1953C103.314 19.5469 103.096 18.8477 103.096 18.0977H105.263C105.303 18.8242 105.592 19.4023 106.131 19.832C106.678 20.2539 107.396 20.4648 108.287 20.4648C109.107 20.4648 109.763 20.3008 110.256 19.9727C110.756 19.6367 111.006 19.1914 111.006 18.6367Z" fill="#FFFCFC"/>
</svg>
