<svg width="24" height="24" viewBox="0 0 24 24" fill="none" xmlns="http://www.w3.org/2000/svg">
<path d="M15.4351 14.0629H14.7124L14.4563 13.8159C15.3528 12.773 15.8925 11.4191 15.8925 9.94625C15.8925 6.66209 13.2304 4 9.94625 4C6.66209 4 4 6.66209 4 9.94625C4 13.2304 6.66209 15.8925 9.94625 15.8925C11.4191 15.8925 12.773 15.3528 13.8159 14.4563L14.0629 14.7124V15.4351L18.6369 20L20 18.6369L15.4351 14.0629ZM9.94625 14.0629C7.66838 14.0629 5.82962 12.2241 5.82962 9.94625C5.82962 7.66838 7.66838 5.82962 9.94625 5.82962C12.2241 5.82962 14.0629 7.66838 14.0629 9.94625C14.0629 12.2241 12.2241 14.0629 9.94625 14.0629Z" fill="white"/>
</svg>
